<svg width="699" height="272" viewBox="0 0 699 272" fill="none" xmlns="http://www.w3.org/2000/svg">
<rect width="699" height="272" fill="url(#paint0_diamond_33_48)"/>
<path d="M239.52 198L237.216 188.464H224.288L222.048 198H211.168L224.544 153.648H237.28L250.656 198H239.52ZM226.08 180.848H235.424L230.752 161.264L226.08 180.848ZM266.582 181.04H262.486V198H251.99V153.648H266.518C272.577 153.648 277.121 154.757 280.15 156.976C283.222 159.195 284.758 162.587 284.758 167.152C284.758 170.011 284.075 172.4 282.71 174.32C281.345 176.197 279.19 177.797 276.246 179.12L287.51 198H275.67L266.582 181.04ZM262.486 173.808H266.902C269.249 173.808 270.998 173.275 272.15 172.208C273.345 171.141 273.942 169.456 273.942 167.152C273.942 165.019 273.302 163.461 272.022 162.48C270.785 161.499 268.865 161.008 266.262 161.008H262.486V173.808ZM304.162 181.04H300.066V198H289.57V153.648H304.098C310.157 153.648 314.701 154.757 317.73 156.976C320.802 159.195 322.338 162.587 322.338 167.152C322.338 170.011 321.655 172.4 320.29 174.32C318.925 176.197 316.77 177.797 313.826 179.12L325.09 198H313.25L304.162 181.04ZM300.066 173.808H304.482C306.829 173.808 308.578 173.275 309.73 172.208C310.925 171.141 311.522 169.456 311.522 167.152C311.522 165.019 310.882 163.461 309.602 162.48C308.365 161.499 306.445 161.008 303.842 161.008H300.066V173.808ZM360.571 183.28C360.571 186.309 359.91 189.019 358.587 191.408C357.307 193.797 355.366 195.675 352.764 197.04C350.161 198.405 346.982 199.088 343.227 199.088C337.595 199.088 333.307 197.659 330.363 194.8C327.419 191.941 325.947 188.101 325.947 183.28V153.648H336.443V182.832C336.443 185.691 336.977 187.824 338.043 189.232C339.153 190.597 340.881 191.28 343.227 191.28C345.617 191.28 347.345 190.597 348.411 189.232C349.521 187.824 350.075 185.691 350.075 182.832V153.648H360.571V183.28ZM378.707 153.648C385.662 153.648 391.23 155.227 395.411 158.384C399.635 161.499 401.747 167.237 401.747 175.6C401.747 183.835 399.699 189.637 395.603 193.008C391.507 196.336 386.195 198 379.667 198H366.355V153.648H378.707ZM376.851 161.264V190.384H380.307C383.763 190.384 386.387 189.317 388.179 187.184C389.971 185.008 390.867 181.147 390.867 175.6C390.867 171.803 390.419 168.859 389.523 166.768C388.627 164.677 387.411 163.248 385.875 162.48C384.339 161.669 382.44 161.264 380.179 161.264H376.851ZM428.857 198L426.553 188.464H413.625L411.385 198H400.505L413.881 153.648H426.617L439.993 198H428.857ZM415.417 180.848H424.761L420.089 161.264L415.417 180.848ZM442.974 148.976C444.51 148.976 445.79 149.467 446.814 150.448C447.838 151.429 448.35 152.667 448.35 154.16C448.35 154.971 448.201 155.803 447.902 156.656C447.646 157.509 447.177 158.661 446.494 160.112L442.398 168.496H437.214L439.902 158.512C438.323 157.403 437.534 155.931 437.534 154.096C437.534 152.645 438.046 151.429 439.07 150.448C440.137 149.467 441.438 148.976 442.974 148.976ZM467.304 152.56C470.632 152.56 473.512 153.029 475.944 153.968C478.419 154.907 480.659 156.336 482.664 158.256L477.8 163.952C474.771 161.477 471.528 160.24 468.072 160.24C466.238 160.24 464.787 160.624 463.72 161.392C462.654 162.117 462.12 163.184 462.12 164.592C462.12 165.573 462.355 166.384 462.824 167.024C463.294 167.621 464.126 168.197 465.32 168.752C466.515 169.307 468.307 169.968 470.696 170.736C475.219 172.187 478.547 173.979 480.68 176.112C482.814 178.203 483.881 181.189 483.881 185.072C483.881 187.845 483.176 190.299 481.768 192.432C480.36 194.523 478.334 196.165 475.688 197.36C473.043 198.512 469.907 199.088 466.28 199.088C462.654 199.088 459.432 198.512 456.616 197.36C453.843 196.208 451.454 194.672 449.448 192.752L454.76 186.928C456.467 188.379 458.216 189.467 460.008 190.192C461.843 190.917 463.827 191.28 465.96 191.28C468.136 191.28 469.843 190.811 471.08 189.872C472.36 188.891 473 187.547 473 185.84C473 184.731 472.766 183.813 472.296 183.088C471.827 182.32 471.016 181.637 469.864 181.04C468.712 180.443 467.048 179.803 464.872 179.12C459.966 177.627 456.467 175.792 454.376 173.616C452.328 171.44 451.304 168.688 451.304 165.36C451.304 162.8 451.987 160.56 453.352 158.64C454.718 156.677 456.616 155.184 459.048 154.16C461.48 153.093 464.232 152.56 467.304 152.56Z" fill="white"/>
<path d="M252.28 234V220H253.76V234H252.28ZM263.715 234V220H264.935L274.595 232.16H273.955V220H275.415V234H274.195L264.555 221.84H265.195V234H263.715ZM286.705 226.78H294.105V228.06H286.705V226.78ZM286.865 234H285.385V220H294.985V221.28H286.865V234ZM309.385 234.12C308.332 234.12 307.352 233.947 306.445 233.6C305.552 233.24 304.772 232.74 304.105 232.1C303.452 231.447 302.938 230.693 302.565 229.84C302.205 228.973 302.025 228.027 302.025 227C302.025 225.973 302.205 225.033 302.565 224.18C302.938 223.313 303.452 222.56 304.105 221.92C304.772 221.267 305.552 220.767 306.445 220.42C307.338 220.06 308.318 219.88 309.385 219.88C310.438 219.88 311.412 220.06 312.305 220.42C313.198 220.767 313.972 221.26 314.625 221.9C315.292 222.54 315.805 223.293 316.165 224.16C316.538 225.027 316.725 225.973 316.725 227C316.725 228.027 316.538 228.973 316.165 229.84C315.805 230.707 315.292 231.46 314.625 232.1C313.972 232.74 313.198 233.24 312.305 233.6C311.412 233.947 310.438 234.12 309.385 234.12ZM309.385 232.8C310.225 232.8 310.998 232.66 311.705 232.38C312.425 232.087 313.045 231.68 313.565 231.16C314.098 230.627 314.512 230.013 314.805 229.32C315.098 228.613 315.245 227.84 315.245 227C315.245 226.16 315.098 225.393 314.805 224.7C314.512 223.993 314.098 223.38 313.565 222.86C313.045 222.327 312.425 221.92 311.705 221.64C310.998 221.347 310.225 221.2 309.385 221.2C308.545 221.2 307.765 221.347 307.045 221.64C306.325 221.92 305.698 222.327 305.165 222.86C304.645 223.38 304.232 223.993 303.925 224.7C303.632 225.393 303.485 226.16 303.485 227C303.485 227.827 303.632 228.593 303.925 229.3C304.232 230.007 304.645 230.627 305.165 231.16C305.698 231.68 306.325 232.087 307.045 232.38C307.765 232.66 308.545 232.8 309.385 232.8ZM325.442 234V220H330.682C331.869 220 332.889 220.193 333.742 220.58C334.596 220.953 335.249 221.5 335.702 222.22C336.169 222.927 336.402 223.787 336.402 224.8C336.402 225.787 336.169 226.64 335.702 227.36C335.249 228.067 334.596 228.613 333.742 229C332.889 229.373 331.869 229.56 330.682 229.56H326.262L326.922 228.88V234H325.442ZM335.002 234L331.402 228.92H333.002L336.622 234H335.002ZM326.922 229L326.262 228.3H330.642C332.042 228.3 333.102 227.993 333.822 227.38C334.556 226.767 334.922 225.907 334.922 224.8C334.922 223.68 334.556 222.813 333.822 222.2C333.102 221.587 332.042 221.28 330.642 221.28H326.262L326.922 220.58V229ZM345.296 234V220H346.516L352.916 230.92H352.276L358.616 220H359.836V234H358.416V222.22H358.756L352.916 232.22H352.216L346.336 222.22H346.716V234H345.296ZM367.557 234L373.957 220H375.417L381.817 234H380.257L374.377 220.86H374.977L369.097 234H367.557ZM370.077 230.26L370.517 229.06H378.657L379.097 230.26H370.077ZM373.397 218.86L376.137 216.38H378.037L374.797 218.86H373.397ZM391.55 234V221.28H386.63V220H397.95V221.28H393.03V234H391.55ZM405.714 234V220H407.194V234H405.714ZM423.23 234.12C422.176 234.12 421.203 233.947 420.31 233.6C419.416 233.24 418.643 232.74 417.99 232.1C417.336 231.46 416.823 230.707 416.45 229.84C416.09 228.973 415.91 228.027 415.91 227C415.91 225.973 416.09 225.027 416.45 224.16C416.823 223.293 417.336 222.54 417.99 221.9C418.656 221.26 419.436 220.767 420.33 220.42C421.223 220.06 422.196 219.88 423.25 219.88C424.263 219.88 425.216 220.053 426.11 220.4C427.003 220.733 427.756 221.24 428.37 221.92L427.43 222.86C426.856 222.273 426.223 221.853 425.53 221.6C424.836 221.333 424.09 221.2 423.29 221.2C422.45 221.2 421.67 221.347 420.95 221.64C420.23 221.92 419.603 222.327 419.07 222.86C418.536 223.38 418.116 223.993 417.81 224.7C417.516 225.393 417.37 226.16 417.37 227C417.37 227.84 417.516 228.613 417.81 229.32C418.116 230.013 418.536 230.627 419.07 231.16C419.603 231.68 420.23 232.087 420.95 232.38C421.67 232.66 422.45 232.8 423.29 232.8C424.09 232.8 424.836 232.667 425.53 232.4C426.223 232.133 426.856 231.707 427.43 231.12L428.37 232.06C427.756 232.74 427.003 233.253 426.11 233.6C425.216 233.947 424.256 234.12 423.23 234.12ZM434.333 234L440.733 220H442.193L448.593 234H447.033L441.153 220.86H441.753L435.873 234H434.333ZM436.853 230.26L437.293 229.06H445.433L445.873 230.26H436.853Z" fill="#63A9DC"/>
<g clip-path="url(#clip0_33_48)">
<path d="M260.379 104.514C260.349 104.482 260.327 104.444 260.316 104.403C256.245 89.1703 256.929 73.2121 262.294 58.3114C267.658 43.4107 277.491 30.1543 290.694 20.0234C303.896 9.89252 319.949 3.2861 337.058 0.942245C354.167 -1.40161 371.659 0.609417 387.579 6.75065C387.615 6.7645 387.648 6.78462 387.675 6.80988C387.702 6.83514 387.724 6.86503 387.739 6.89785C387.753 6.93068 387.76 6.96578 387.76 7.00117C387.76 7.03656 387.752 7.07154 387.736 7.10411C387.721 7.13668 387.699 7.1662 387.671 7.191C387.643 7.21579 387.61 7.23536 387.574 7.2486C387.538 7.26184 387.499 7.26848 387.46 7.26815C387.421 7.26782 387.382 7.26053 387.346 7.24668C354.775 -5.29775 317.816 -0.185363 290.892 20.5888C264.131 41.2362 252.637 73.3033 260.895 104.276C260.911 104.335 260.904 104.397 260.876 104.453C260.848 104.508 260.8 104.553 260.741 104.58C260.681 104.608 260.613 104.616 260.547 104.604C260.482 104.592 260.422 104.561 260.379 104.514Z" fill="#E6E6E6"/>
<path d="M314.777 162.355C314.733 162.308 314.708 162.25 314.706 162.19C314.703 162.129 314.723 162.07 314.763 162.021C314.802 161.972 314.859 161.936 314.923 161.92C314.988 161.904 315.056 161.908 315.118 161.931C347.567 174.24 384.348 169.059 411.109 148.411C438.286 127.442 449.828 95.2076 441.229 64.2883C441.219 64.2539 441.217 64.2183 441.223 64.1832C441.228 64.1482 441.242 64.1146 441.262 64.0842C441.282 64.0538 441.308 64.0273 441.34 64.0062C441.371 63.9851 441.407 63.9698 441.445 63.9611C441.483 63.9525 441.522 63.9507 441.561 63.9559C441.599 63.9611 441.636 63.9731 441.67 63.9912C441.704 64.0094 441.733 64.0334 441.756 64.0618C441.779 64.0902 441.796 64.1225 441.806 64.1568C445.979 79.1815 445.45 94.9619 440.278 109.729C434.923 124.948 424.948 138.495 411.494 148.822C398.358 158.963 382.372 165.604 365.317 168.006C348.261 170.408 330.804 168.477 314.888 162.428C314.845 162.412 314.807 162.387 314.777 162.355Z" fill="#E6E6E6"/>
<path d="M307.9 167.139C307.874 167.112 307.855 167.081 307.843 167.047C307.831 167.013 307.826 166.978 307.83 166.942C307.833 166.907 307.843 166.873 307.861 166.841C307.879 166.81 307.904 166.782 307.933 166.759L448.51 58.2938C448.57 58.2475 448.648 58.2247 448.726 58.2304C448.805 58.2361 448.878 58.2698 448.929 58.3242C448.98 58.3787 449.005 58.4493 448.999 58.5205C448.993 58.5918 448.956 58.6578 448.895 58.7042L308.319 167.169C308.289 167.192 308.255 167.21 308.218 167.22C308.181 167.231 308.141 167.236 308.103 167.233C308.064 167.23 308.026 167.22 307.991 167.204C307.956 167.188 307.925 167.166 307.9 167.139Z" fill="#E6E6E6"/>
<path d="M254.071 109.905C254.046 109.878 254.026 109.847 254.014 109.813C254.002 109.779 253.998 109.744 254.001 109.709C254.004 109.673 254.015 109.639 254.033 109.607C254.05 109.576 254.075 109.548 254.105 109.525L394.681 1.0599C394.741 1.01363 394.819 0.990865 394.897 0.996597C394.976 1.00233 395.049 1.03609 395.1 1.09047C395.151 1.14485 395.176 1.2154 395.17 1.28661C395.164 1.35782 395.127 1.42388 395.067 1.47025L254.491 109.935C254.461 109.958 254.426 109.976 254.389 109.987C254.352 109.997 254.313 110.002 254.274 109.999C254.235 109.996 254.197 109.986 254.162 109.97C254.127 109.954 254.096 109.932 254.071 109.905Z" fill="#E6E6E6"/>
<path d="M307.9 167.139C307.874 167.112 307.855 167.081 307.843 167.047C307.831 167.013 307.826 166.978 307.83 166.942C307.833 166.907 307.843 166.873 307.861 166.841C307.879 166.81 307.904 166.782 307.933 166.759L448.51 58.2938C448.57 58.2475 448.648 58.2247 448.726 58.2304C448.805 58.2361 448.878 58.2698 448.929 58.3242C448.98 58.3787 449.005 58.4493 448.999 58.5205C448.993 58.5918 448.956 58.6578 448.895 58.7042L308.319 167.169C308.289 167.192 308.255 167.21 308.218 167.22C308.181 167.231 308.141 167.236 308.103 167.233C308.064 167.23 308.026 167.22 307.991 167.204C307.956 167.188 307.925 167.166 307.9 167.139Z" fill="#E6E6E6"/>
<path d="M418.355 44.7054H363.947V44.4474C363.947 44.2464 363.859 44.0537 363.702 43.9116C363.545 43.7695 363.333 43.6897 363.111 43.6897H340.113C339.891 43.6897 339.679 43.7695 339.522 43.9116C339.365 44.0537 339.277 44.2464 339.277 44.4474V44.7054H284.645C283.669 44.7054 282.733 45.0566 282.043 45.6817C281.353 46.3069 280.965 47.1547 280.965 48.0388V115.518C280.965 116.402 281.353 117.25 282.043 117.875C282.733 118.5 283.669 118.851 284.645 118.851H418.355C419.331 118.851 420.267 118.5 420.957 117.875C421.647 117.25 422.035 116.402 422.035 115.518V48.0388C422.035 47.1547 421.647 46.3069 420.957 45.6817C420.267 45.0566 419.331 44.7054 418.355 44.7054Z" fill="#3F3D56"/>
<path d="M287.572 51.7998C287.481 51.7999 287.393 51.8328 287.329 51.8913C287.264 51.9498 287.228 52.0291 287.228 52.1118V116.117C287.228 116.2 287.264 116.279 287.329 116.338C287.393 116.396 287.481 116.429 287.572 116.429H415.428C415.519 116.429 415.607 116.396 415.671 116.338C415.736 116.279 415.772 116.2 415.772 116.117V52.1118C415.772 52.0291 415.736 51.9498 415.671 51.8913C415.607 51.8328 415.519 51.7999 415.428 51.7998H287.572Z" fill="#458EC2"/>
<path d="M351.388 48.7682C352.131 48.7682 352.734 48.2225 352.734 47.5494C352.734 46.8763 352.131 46.3306 351.388 46.3306C350.645 46.3306 350.042 46.8763 350.042 47.5494C350.042 48.2225 350.645 48.7682 351.388 48.7682Z" fill="#458EC2"/>
<path d="M424.485 114.303H411.681V113.106C411.681 113.04 411.599 112.987 411.498 112.987H407.108C407.007 112.987 406.925 113.04 406.925 113.106V114.303H404.181V113.106C404.181 113.04 404.099 112.987 403.998 112.987H399.608C399.507 112.987 399.425 113.04 399.425 113.106V114.303H396.681V113.106C396.681 113.04 396.599 112.987 396.498 112.987H392.108C392.007 112.987 391.925 113.04 391.925 113.106V114.303H389.182V113.106C389.182 113.04 389.1 112.987 388.999 112.987H384.609C384.508 112.987 384.426 113.04 384.426 113.106V114.303H381.682V113.106C381.682 113.04 381.6 112.987 381.499 112.987H377.109C377.008 112.987 376.926 113.04 376.926 113.106V114.303H374.182V113.106C374.182 113.04 374.1 112.987 373.999 112.987H369.609C369.508 112.987 369.426 113.04 369.426 113.106V114.303H366.682V113.106C366.682 113.04 366.6 112.987 366.499 112.987H332.11C332.009 112.987 331.927 113.04 331.927 113.106V114.303H329.184V113.106C329.184 113.04 329.102 112.987 329.001 112.987H324.611C324.51 112.987 324.428 113.04 324.428 113.106V114.303H321.684V113.106C321.684 113.04 321.602 112.987 321.501 112.987H317.111C317.01 112.987 316.928 113.04 316.928 113.106V114.303H314.184V113.106C314.184 113.04 314.102 112.987 314.001 112.987H309.611C309.51 112.987 309.428 113.04 309.428 113.106V114.303H306.684V113.106C306.684 113.04 306.603 112.987 306.501 112.987H302.111C302.01 112.987 301.928 113.04 301.928 113.106V114.303H299.185V113.106C299.185 113.04 299.103 112.987 299.002 112.987H294.612C294.511 112.987 294.429 113.04 294.429 113.106V114.303H291.685V113.106C291.685 113.04 291.603 112.987 291.502 112.987H287.112C287.011 112.987 286.929 113.04 286.929 113.106V114.303H278.515C276.09 114.303 274.125 115.583 274.125 117.162V118.454C274.125 120.033 276.09 121.313 278.515 121.313H424.485C426.91 121.313 428.875 120.033 428.875 118.454V117.162C428.875 115.583 426.91 114.303 424.485 114.303Z" fill="#3F3D56"/>
<path d="M336.614 78.7279H298.823C298.744 78.7279 298.668 78.6995 298.612 78.6489C298.556 78.5984 298.525 78.5298 298.525 78.4584C298.525 78.3869 298.556 78.3183 298.612 78.2678C298.668 78.2172 298.744 78.1888 298.823 78.1888H336.614C336.693 78.1888 336.769 78.2172 336.824 78.2678C336.88 78.3183 336.912 78.3869 336.912 78.4584C336.912 78.5298 336.88 78.5984 336.824 78.6489C336.769 78.6995 336.693 78.7279 336.614 78.7279Z" fill="#F2F2F2"/>
<path d="M336.614 84.6575H298.823C298.744 84.6575 298.668 84.6291 298.612 84.5785C298.556 84.528 298.525 84.4594 298.525 84.3879C298.525 84.3165 298.556 84.2479 298.612 84.1973C298.668 84.1468 298.744 84.1184 298.823 84.1184H336.614C336.693 84.1184 336.769 84.1468 336.824 84.1973C336.88 84.2479 336.912 84.3165 336.912 84.3879C336.912 84.4594 336.88 84.528 336.824 84.5785C336.769 84.6291 336.693 84.6575 336.614 84.6575Z" fill="#F2F2F2"/>
<path d="M336.614 90.5869H298.823C298.783 90.587 298.745 90.5801 298.708 90.5666C298.672 90.5531 298.639 90.5333 298.612 90.5082C298.584 90.4832 298.562 90.4535 298.547 90.4207C298.532 90.388 298.524 90.3528 298.524 90.3174C298.524 90.2819 298.532 90.2468 298.547 90.2141C298.562 90.1813 298.584 90.1515 298.612 90.1265C298.639 90.1015 298.672 90.0816 298.708 90.0681C298.745 90.0546 298.783 90.0477 298.823 90.0479H336.614C336.653 90.0477 336.692 90.0546 336.728 90.0681C336.764 90.0816 336.797 90.1015 336.825 90.1265C336.853 90.1515 336.875 90.1813 336.89 90.2141C336.905 90.2468 336.912 90.2819 336.912 90.3174C336.912 90.3528 336.905 90.388 336.89 90.4207C336.875 90.4535 336.853 90.4832 336.825 90.5082C336.797 90.5333 336.764 90.5531 336.728 90.5666C336.692 90.5801 336.653 90.587 336.614 90.5869Z" fill="#F2F2F2"/>
<path d="M400.74 63.2302H354.022C353.529 63.2302 353.129 63.5922 353.129 64.0388V104.737C353.129 105.183 353.529 105.546 354.022 105.546H400.74C401.233 105.546 401.633 105.183 401.633 104.737V64.0388C401.633 63.5922 401.233 63.2302 400.74 63.2302Z" fill="white"/>
<path d="M362.842 85.6248C363.002 83.0619 364.161 80.6337 366.114 78.7733C368.067 76.9128 370.686 75.741 373.504 75.4667C376.322 75.1924 379.156 75.8335 381.5 77.2757C383.845 78.7179 385.548 80.8675 386.305 83.3411C386.45 83.3364 386.595 83.3311 386.741 83.3311C387.24 83.3354 387.734 83.4117 388.206 83.5569C394.155 85.3262 392.589 93.3705 386.327 93.3705H370.94C369.852 93.3732 368.774 93.1771 367.771 92.7938C366.769 92.4104 365.862 91.8478 365.105 91.1395C364.348 90.4313 363.757 89.592 363.366 88.6718C362.976 87.7517 362.795 86.7697 362.833 85.7846C362.836 85.7314 362.838 85.6782 362.842 85.6248Z" fill="#458EC2"/>
<path d="M376.867 85.4562V81.0227H374.231V85.4562H372.127L373.838 88.1406L375.549 90.8249L377.26 88.1406L378.971 85.4562H376.867Z" fill="white"/>
</g>
<defs>
<radialGradient id="paint0_diamond_33_48" cx="0" cy="0" r="1" gradientUnits="userSpaceOnUse" gradientTransform="translate(188.267 78.0328) rotate(20.7959) scale(546.326 438.701)">
<stop stop-color="#0A458F"/>
<stop offset="1" stop-color="#031429"/>
</radialGradient>
<clipPath id="clip0_33_48">
<rect width="195" height="169" fill="white" transform="translate(254)"/>
</clipPath>
</defs>
</svg>
