<svg width="362" height="305" viewBox="0 0 362 305" fill="none" xmlns="http://www.w3.org/2000/svg">
<rect width="362" height="305" fill="url(#paint0_diamond_30_25)"/>
<path d="M81.28 242V228H82.76V242H81.28ZM92.7152 242V228H93.9352L103.595 240.16H102.955V228H104.415V242H103.195L93.5552 229.84H94.1952V242H92.7152ZM115.705 234.78H123.105V236.06H115.705V234.78ZM115.865 242H114.385V228H123.985V229.28H115.865V242ZM138.385 242.12C137.332 242.12 136.352 241.947 135.445 241.6C134.552 241.24 133.772 240.74 133.105 240.1C132.452 239.447 131.938 238.693 131.565 237.84C131.205 236.973 131.025 236.027 131.025 235C131.025 233.973 131.205 233.033 131.565 232.18C131.938 231.313 132.452 230.56 133.105 229.92C133.772 229.267 134.552 228.767 135.445 228.42C136.338 228.06 137.318 227.88 138.385 227.88C139.438 227.88 140.412 228.06 141.305 228.42C142.198 228.767 142.972 229.26 143.625 229.9C144.292 230.54 144.805 231.293 145.165 232.16C145.538 233.027 145.725 233.973 145.725 235C145.725 236.027 145.538 236.973 145.165 237.84C144.805 238.707 144.292 239.46 143.625 240.1C142.972 240.74 142.198 241.24 141.305 241.6C140.412 241.947 139.438 242.12 138.385 242.12ZM138.385 240.8C139.225 240.8 139.998 240.66 140.705 240.38C141.425 240.087 142.045 239.68 142.565 239.16C143.098 238.627 143.512 238.013 143.805 237.32C144.098 236.613 144.245 235.84 144.245 235C144.245 234.16 144.098 233.393 143.805 232.7C143.512 231.993 143.098 231.38 142.565 230.86C142.045 230.327 141.425 229.92 140.705 229.64C139.998 229.347 139.225 229.2 138.385 229.2C137.545 229.2 136.765 229.347 136.045 229.64C135.325 229.92 134.698 230.327 134.165 230.86C133.645 231.38 133.232 231.993 132.925 232.7C132.632 233.393 132.485 234.16 132.485 235C132.485 235.827 132.632 236.593 132.925 237.3C133.232 238.007 133.645 238.627 134.165 239.16C134.698 239.68 135.325 240.087 136.045 240.38C136.765 240.66 137.545 240.8 138.385 240.8ZM154.442 242V228H159.682C160.869 228 161.889 228.193 162.742 228.58C163.596 228.953 164.249 229.5 164.702 230.22C165.169 230.927 165.402 231.787 165.402 232.8C165.402 233.787 165.169 234.64 164.702 235.36C164.249 236.067 163.596 236.613 162.742 237C161.889 237.373 160.869 237.56 159.682 237.56H155.262L155.922 236.88V242H154.442ZM164.002 242L160.402 236.92H162.002L165.622 242H164.002ZM155.922 237L155.262 236.3H159.642C161.042 236.3 162.102 235.993 162.822 235.38C163.556 234.767 163.922 233.907 163.922 232.8C163.922 231.68 163.556 230.813 162.822 230.2C162.102 229.587 161.042 229.28 159.642 229.28H155.262L155.922 228.58V237ZM174.296 242V228H175.516L181.916 238.92H181.276L187.616 228H188.836V242H187.416V230.22H187.756L181.916 240.22H181.216L175.336 230.22H175.716V242H174.296ZM196.557 242L202.957 228H204.417L210.817 242H209.257L203.377 228.86H203.977L198.097 242H196.557ZM199.077 238.26L199.517 237.06H207.657L208.097 238.26H199.077ZM202.397 226.86L205.137 224.38H207.037L203.797 226.86H202.397ZM220.55 242V229.28H215.63V228H226.95V229.28H222.03V242H220.55ZM234.714 242V228H236.194V242H234.714ZM252.23 242.12C251.176 242.12 250.203 241.947 249.31 241.6C248.416 241.24 247.643 240.74 246.99 240.1C246.336 239.46 245.823 238.707 245.45 237.84C245.09 236.973 244.91 236.027 244.91 235C244.91 233.973 245.09 233.027 245.45 232.16C245.823 231.293 246.336 230.54 246.99 229.9C247.656 229.26 248.436 228.767 249.33 228.42C250.223 228.06 251.196 227.88 252.25 227.88C253.263 227.88 254.216 228.053 255.11 228.4C256.003 228.733 256.756 229.24 257.37 229.92L256.43 230.86C255.856 230.273 255.223 229.853 254.53 229.6C253.836 229.333 253.09 229.2 252.29 229.2C251.45 229.2 250.67 229.347 249.95 229.64C249.23 229.92 248.603 230.327 248.07 230.86C247.536 231.38 247.116 231.993 246.81 232.7C246.516 233.393 246.37 234.16 246.37 235C246.37 235.84 246.516 236.613 246.81 237.32C247.116 238.013 247.536 238.627 248.07 239.16C248.603 239.68 249.23 240.087 249.95 240.38C250.67 240.66 251.45 240.8 252.29 240.8C253.09 240.8 253.836 240.667 254.53 240.4C255.223 240.133 255.856 239.707 256.43 239.12L257.37 240.06C256.756 240.74 256.003 241.253 255.11 241.6C254.216 241.947 253.256 242.12 252.23 242.12ZM263.333 242L269.733 228H271.193L277.593 242H276.033L270.153 228.86H270.753L264.873 242H263.333ZM265.853 238.26L266.293 237.06H274.433L274.873 238.26H265.853Z" fill="#63A9DC"/>
<path d="M96.2928 210L94.5102 202.622H84.5075L82.7744 210H74.3563L84.7056 175.684H94.5597L104.909 210H96.2928ZM85.894 196.729H93.1237L89.5088 181.577L85.894 196.729ZM117.231 196.878H114.062V210H105.941V175.684H117.182C121.87 175.684 125.385 176.542 127.729 178.259C130.106 179.975 131.295 182.6 131.295 186.132C131.295 188.344 130.766 190.193 129.71 191.678C128.654 193.131 126.986 194.369 124.709 195.392L133.424 210H124.263L117.231 196.878ZM114.062 191.282H117.479C119.295 191.282 120.648 190.869 121.539 190.044C122.464 189.219 122.926 187.915 122.926 186.132C122.926 184.482 122.431 183.277 121.44 182.517C120.483 181.758 118.997 181.378 116.984 181.378H114.062V191.282ZM146.308 196.878H143.139V210H135.018V175.684H146.258C150.946 175.684 154.462 176.542 156.806 178.259C159.183 179.975 160.371 182.6 160.371 186.132C160.371 188.344 159.843 190.193 158.786 191.678C157.73 193.131 156.063 194.369 153.785 195.392L162.5 210H153.339L146.308 196.878ZM143.139 191.282H146.555C148.371 191.282 149.725 190.869 150.616 190.044C151.54 189.219 152.002 187.915 152.002 186.132C152.002 184.482 151.507 183.277 150.517 182.517C149.56 181.758 148.074 181.378 146.06 181.378H143.139V191.282ZM189.953 198.611C189.953 200.955 189.441 203.051 188.418 204.9C187.428 206.748 185.926 208.201 183.912 209.257C181.898 210.314 179.439 210.842 176.534 210.842C172.176 210.842 168.858 209.736 166.581 207.524C164.303 205.312 163.164 202.341 163.164 198.611V175.684H171.285V198.264C171.285 200.476 171.697 202.127 172.523 203.216C173.381 204.272 174.718 204.801 176.534 204.801C178.382 204.801 179.719 204.272 180.545 203.216C181.403 202.127 181.832 200.476 181.832 198.264V175.684H189.953V198.611ZM203.985 175.684C209.366 175.684 213.674 176.905 216.909 179.348C220.177 181.758 221.812 186.198 221.812 192.669C221.812 199.04 220.227 203.53 217.058 206.138C213.889 208.713 209.779 210 204.728 210H194.428V175.684H203.985ZM202.549 181.577V204.107H205.223C207.897 204.107 209.927 203.282 211.314 201.631C212.7 199.948 213.393 196.96 213.393 192.669C213.393 189.731 213.047 187.453 212.354 185.835C211.66 184.217 210.719 183.112 209.531 182.517C208.343 181.89 206.874 181.577 205.124 181.577H202.549ZM242.788 210L241.005 202.622H231.002L229.269 210H220.851L231.2 175.684H241.054L251.404 210H242.788ZM232.389 196.729H239.618L236.004 181.577L232.389 196.729ZM253.71 172.069C254.898 172.069 255.889 172.449 256.681 173.208C257.473 173.967 257.869 174.925 257.869 176.08C257.869 176.707 257.754 177.351 257.523 178.011C257.325 178.671 256.962 179.563 256.433 180.685L253.264 187.172H249.253L251.333 179.447C250.111 178.589 249.501 177.45 249.501 176.03C249.501 174.908 249.897 173.967 250.689 173.208C251.515 172.449 252.521 172.069 253.71 172.069ZM272.535 174.842C275.11 174.842 277.338 175.205 279.22 175.931C281.135 176.658 282.868 177.764 284.419 179.249L280.656 183.656C278.312 181.742 275.803 180.784 273.129 180.784C271.71 180.784 270.587 181.081 269.762 181.676C268.937 182.237 268.524 183.062 268.524 184.151C268.524 184.911 268.705 185.538 269.069 186.033C269.432 186.495 270.075 186.941 271 187.37C271.924 187.799 273.311 188.311 275.159 188.905C278.659 190.028 281.234 191.414 282.884 193.065C284.535 194.682 285.36 196.993 285.36 199.997C285.36 202.143 284.815 204.041 283.726 205.692C282.637 207.31 281.069 208.58 279.022 209.505C276.975 210.396 274.549 210.842 271.743 210.842C268.937 210.842 266.444 210.396 264.265 209.505C262.12 208.613 260.271 207.425 258.719 205.94L262.829 201.433C264.15 202.556 265.503 203.398 266.89 203.959C268.309 204.52 269.844 204.801 271.495 204.801C273.179 204.801 274.499 204.437 275.456 203.711C276.447 202.952 276.942 201.912 276.942 200.592C276.942 199.733 276.76 199.023 276.397 198.462C276.034 197.868 275.407 197.34 274.516 196.878C273.624 196.415 272.337 195.92 270.653 195.392C266.857 194.237 264.15 192.817 262.532 191.134C260.948 189.45 260.155 187.321 260.155 184.746C260.155 182.765 260.684 181.032 261.74 179.546C262.796 178.028 264.265 176.872 266.147 176.08C268.029 175.255 270.158 174.842 272.535 174.842Z" fill="white"/>
<g clip-path="url(#clip0_30_25)">
<path d="M89.3831 115.646C89.3528 115.611 89.3313 115.568 89.3204 115.523C85.246 98.6678 85.931 81.0099 91.2989 64.5221C96.6669 48.0343 106.506 33.3661 119.718 22.1561C132.93 10.9462 148.993 3.63613 166.114 1.04263C183.234 -1.55087 200.738 0.674355 216.668 7.46969C216.704 7.48501 216.737 7.50728 216.764 7.53522C216.792 7.56317 216.813 7.59625 216.828 7.63257C216.842 7.66888 216.85 7.70773 216.849 7.74689C216.849 7.78605 216.841 7.82475 216.826 7.86079C216.81 7.89683 216.788 7.9295 216.76 7.95693C216.732 7.98436 216.699 8.00602 216.663 8.02067C216.627 8.03532 216.588 8.04267 216.549 8.0423C216.51 8.04194 216.471 8.03387 216.435 8.01855C183.842 -5.86198 146.859 -0.205077 119.916 22.7818C93.1381 45.6283 81.6364 81.1108 89.8995 115.383C89.9152 115.448 89.9085 115.517 89.8805 115.578C89.8525 115.639 89.8048 115.688 89.7451 115.719C89.6854 115.749 89.6172 115.759 89.5515 115.745C89.4858 115.732 89.4265 115.697 89.3831 115.646Z" fill="#E6E6E6"/>
<path d="M143.817 179.647C143.774 179.596 143.749 179.532 143.746 179.465C143.744 179.397 143.764 179.331 143.803 179.277C143.843 179.223 143.899 179.184 143.964 179.166C144.029 179.148 144.097 179.152 144.159 179.178C176.629 192.798 213.435 187.066 240.214 164.219C267.41 141.016 278.959 105.348 270.354 71.1356C270.344 71.0976 270.342 71.0582 270.348 71.0194C270.354 70.9807 270.367 70.9434 270.387 70.9098C270.407 70.8762 270.434 70.8469 270.465 70.8235C270.496 70.8001 270.532 70.7832 270.57 70.7736C270.608 70.7641 270.647 70.7621 270.686 70.7678C270.725 70.7736 270.762 70.7868 270.796 70.8069C270.829 70.8271 270.858 70.8536 270.882 70.885C270.905 70.9165 270.922 70.9522 270.931 70.9902C275.107 87.6151 274.578 105.076 269.402 121.417C264.044 138.256 254.063 153.246 240.6 164.673C227.454 175.894 211.458 183.242 194.391 185.9C177.324 188.558 159.855 186.422 143.929 179.728C143.886 179.71 143.848 179.682 143.817 179.647Z" fill="#E6E6E6"/>
<path d="M136.936 184.94C136.91 184.911 136.891 184.876 136.879 184.839C136.867 184.802 136.862 184.762 136.865 184.723C136.869 184.684 136.879 184.646 136.897 184.611C136.915 184.576 136.939 184.545 136.969 184.52L277.64 64.5026C277.7 64.4513 277.778 64.426 277.856 64.4323C277.935 64.4387 278.008 64.476 278.059 64.5362C278.11 64.5964 278.136 64.6746 278.129 64.7534C278.123 64.8323 278.086 64.9054 278.026 64.9567L137.355 184.974C137.326 185 137.291 185.019 137.254 185.031C137.217 185.043 137.178 185.048 137.139 185.044C137.1 185.041 137.062 185.031 137.027 185.013C136.992 184.995 136.961 184.97 136.936 184.94Z" fill="#E6E6E6"/>
<path d="M83.0711 121.611C83.0458 121.581 83.0265 121.546 83.0145 121.509C83.0024 121.472 82.9978 121.433 83.0009 121.394C83.0041 121.354 83.0148 121.316 83.0326 121.282C83.0504 121.247 83.0749 121.216 83.1047 121.19L223.775 1.17282C223.835 1.12162 223.913 1.09643 223.992 1.10277C224.07 1.10911 224.143 1.14647 224.195 1.20665C224.246 1.26682 224.271 1.34488 224.265 1.42367C224.258 1.50247 224.221 1.57556 224.161 1.62687L83.4909 121.644C83.4611 121.67 83.4267 121.689 83.3895 121.701C83.3523 121.713 83.313 121.718 83.2741 121.715C83.2351 121.711 83.1971 121.701 83.1623 121.683C83.1275 121.665 83.0965 121.641 83.0711 121.611Z" fill="#E6E6E6"/>
<path d="M136.936 184.94C136.91 184.911 136.891 184.876 136.879 184.839C136.867 184.802 136.862 184.762 136.865 184.723C136.869 184.684 136.879 184.646 136.897 184.611C136.915 184.576 136.939 184.545 136.969 184.52L277.64 64.5026C277.7 64.4513 277.778 64.426 277.856 64.4323C277.935 64.4387 278.008 64.476 278.059 64.5362C278.11 64.5964 278.136 64.6746 278.129 64.7534C278.123 64.8323 278.086 64.9054 278.026 64.9567L137.355 184.974C137.326 185 137.291 185.019 137.254 185.031C137.217 185.043 137.178 185.048 137.139 185.044C137.1 185.041 137.062 185.031 137.027 185.013C136.992 184.995 136.961 184.97 136.936 184.94Z" fill="#E6E6E6"/>
<path d="M247.465 49.4669H193.021V49.1814C193.021 48.959 192.933 48.7458 192.776 48.5886C192.619 48.4313 192.406 48.343 192.184 48.343H169.171C168.949 48.343 168.736 48.4313 168.579 48.5886C168.422 48.7458 168.334 48.959 168.334 49.1814V49.4669H113.666C112.689 49.4669 111.752 49.8555 111.062 50.5472C110.371 51.2389 109.983 52.1771 109.983 53.1553V127.821C109.983 128.8 110.371 129.738 111.062 130.429C111.752 131.121 112.689 131.51 113.666 131.51H247.465C248.441 131.51 249.378 131.121 250.069 130.429C250.759 129.738 251.147 128.8 251.147 127.821V53.1553C251.147 52.1771 250.759 51.2389 250.069 50.5472C249.378 49.8555 248.441 49.4669 247.465 49.4669Z" fill="#3F3D56"/>
<path d="M116.595 57.317C116.503 57.3171 116.416 57.3536 116.351 57.4183C116.286 57.483 116.25 57.5707 116.25 57.6623V128.485C116.25 128.576 116.286 128.664 116.351 128.729C116.416 128.793 116.503 128.83 116.595 128.83H244.536C244.627 128.83 244.715 128.793 244.78 128.729C244.844 128.664 244.88 128.576 244.881 128.485V57.6623C244.88 57.5707 244.844 57.483 244.78 57.4183C244.715 57.3535 244.627 57.3171 244.536 57.317H116.595Z" fill="#458EC2"/>
<path d="M180.453 53.9626C181.197 53.9626 181.8 53.3587 181.8 52.6139C181.8 51.8691 181.197 51.2653 180.453 51.2653C179.709 51.2653 179.106 51.8691 179.106 52.6139C179.106 53.3587 179.709 53.9626 180.453 53.9626Z" fill="#458EC2"/>
<path d="M253.599 126.478H240.786V125.152C240.786 125.08 240.704 125.021 240.603 125.021H236.21C236.109 125.021 236.027 125.08 236.027 125.152V126.478H233.282V125.152C233.282 125.08 233.2 125.021 233.098 125.021H228.705C228.604 125.021 228.522 125.08 228.522 125.152V126.478H225.777V125.152C225.777 125.08 225.695 125.021 225.594 125.021H221.201C221.1 125.021 221.018 125.08 221.018 125.152V126.478H218.272V125.152C218.272 125.08 218.19 125.021 218.089 125.021H213.696C213.595 125.021 213.513 125.08 213.513 125.152V126.478H210.767V125.152C210.767 125.08 210.685 125.021 210.584 125.021H206.191C206.09 125.021 206.008 125.08 206.008 125.152V126.478H203.262V125.152C203.262 125.08 203.181 125.021 203.079 125.021H198.686C198.585 125.021 198.503 125.08 198.503 125.152V126.478H195.758V125.152C195.758 125.08 195.676 125.021 195.575 125.021H161.163C161.061 125.021 160.98 125.08 160.98 125.152V126.478H158.234V125.152C158.234 125.08 158.152 125.021 158.051 125.021H153.658C153.557 125.021 153.475 125.08 153.475 125.152V126.478H150.729V125.152C150.729 125.08 150.647 125.021 150.546 125.021H146.153C146.052 125.021 145.97 125.08 145.97 125.152V126.478H143.224V125.152C143.224 125.08 143.142 125.021 143.041 125.021H138.648C138.547 125.021 138.465 125.08 138.465 125.152V126.478H135.72V125.152C135.72 125.08 135.638 125.021 135.537 125.021H131.144C131.042 125.021 130.96 125.08 130.96 125.152V126.478H128.215V125.152C128.215 125.08 128.133 125.021 128.032 125.021H123.639C123.538 125.021 123.456 125.08 123.456 125.152V126.478H120.71V125.152C120.71 125.08 120.628 125.021 120.527 125.021H116.134C116.033 125.021 115.951 125.08 115.951 125.152V126.478H107.531C105.105 126.478 103.138 127.894 103.138 129.641V131.071C103.138 132.818 105.105 134.234 107.531 134.234H253.599C256.025 134.234 257.992 132.818 257.992 131.071V129.641C257.992 127.894 256.025 126.478 253.599 126.478Z" fill="#3F3D56"/>
<path d="M165.669 87.1131H127.853C127.774 87.1131 127.698 87.0816 127.642 87.0257C127.586 86.9698 127.555 86.8939 127.555 86.8148C127.555 86.7357 127.586 86.6599 127.642 86.604C127.698 86.548 127.774 86.5166 127.853 86.5166H165.669C165.748 86.5166 165.824 86.548 165.88 86.604C165.936 86.6599 165.967 86.7357 165.967 86.8148C165.967 86.8939 165.936 86.9698 165.88 87.0257C165.824 87.0816 165.748 87.1131 165.669 87.1131Z" fill="#F2F2F2"/>
<path d="M165.669 93.6742H127.853C127.774 93.6742 127.698 93.6428 127.642 93.5869C127.586 93.5309 127.555 93.4551 127.555 93.376C127.555 93.2969 127.586 93.221 127.642 93.1651C127.698 93.1092 127.774 93.0778 127.853 93.0778H165.669C165.748 93.0778 165.824 93.1092 165.88 93.1651C165.936 93.221 165.967 93.2969 165.967 93.376C165.967 93.4551 165.936 93.5309 165.88 93.5869C165.824 93.6428 165.748 93.6742 165.669 93.6742Z" fill="#F2F2F2"/>
<path d="M165.669 100.235H127.853C127.814 100.235 127.775 100.228 127.739 100.213C127.702 100.198 127.669 100.176 127.642 100.148C127.614 100.121 127.592 100.088 127.577 100.051C127.562 100.015 127.554 99.9763 127.554 99.937C127.554 99.8978 127.562 99.8589 127.577 99.8227C127.592 99.7865 127.614 99.7535 127.642 99.7258C127.669 99.6981 127.702 99.6762 127.739 99.6612C127.775 99.6463 127.814 99.6387 127.853 99.6388H165.669C165.709 99.6387 165.747 99.6463 165.784 99.6612C165.82 99.6762 165.853 99.6981 165.88 99.7258C165.908 99.7535 165.93 99.7865 165.945 99.8227C165.96 99.8589 165.968 99.8978 165.968 99.937C165.968 99.9763 165.96 100.015 165.945 100.051C165.93 100.088 165.908 100.121 165.88 100.148C165.853 100.176 165.82 100.198 165.784 100.213C165.747 100.228 165.709 100.235 165.669 100.235Z" fill="#F2F2F2"/>
<path d="M229.838 69.9648H183.089C182.595 69.9648 182.195 70.3654 182.195 70.8595V115.892C182.195 116.387 182.595 116.787 183.089 116.787H229.838C230.332 116.787 230.732 116.387 230.732 115.892V70.8595C230.732 70.3654 230.332 69.9648 229.838 69.9648Z" fill="white"/>
<path d="M191.914 94.7446C192.074 91.9087 193.235 89.2219 195.189 87.1633C197.143 85.1047 199.764 83.808 202.584 83.5045C205.403 83.2011 208.239 83.9105 210.585 85.5063C212.931 87.1021 214.635 89.4806 215.394 92.2177C215.539 92.2125 215.683 92.2066 215.83 92.2066C216.329 92.2114 216.824 92.2957 217.296 92.4565C223.249 94.4141 221.681 103.315 215.416 103.315H200.018C198.929 103.318 197.851 103.101 196.847 102.677C195.844 102.253 194.937 101.63 194.179 100.847C193.422 100.063 192.83 99.1343 192.439 98.1161C192.049 97.098 191.867 96.0114 191.906 94.9214C191.908 94.8626 191.911 94.8036 191.914 94.7446Z" fill="#458EC2"/>
<path d="M205.949 94.5579V89.6522H203.312V94.5579H201.206L202.918 97.5283L204.631 100.498L206.343 97.5283L208.055 94.5579H205.949Z" fill="white"/>
</g>
<defs>
<radialGradient id="paint0_diamond_30_25" cx="0" cy="0" r="1" gradientUnits="userSpaceOnUse" gradientTransform="translate(97.5 87.5) rotate(39.4307) scale(342.442 406.439)">
<stop stop-color="#0A458F"/>
<stop offset="1" stop-color="#031429"/>
</radialGradient>
<clipPath id="clip0_30_25">
<rect width="195.13" height="187" fill="white" transform="translate(83)"/>
</clipPath>
</defs>
</svg>
